<?xml version="1.0" encoding="utf-8"?>
<!-- Generator: Adobe Illustrator 16.0.0, SVG Export Plug-In . SVG Version: 6.00 Build 0)  -->
<!DOCTYPE svg PUBLIC "-//W3C//DTD SVG 1.1//EN" "http://www.w3.org/Graphics/SVG/1.1/DTD/svg11.dtd">
<svg version="1.1" id="图层_1" xmlns="http://www.w3.org/2000/svg" xmlns:xlink="http://www.w3.org/1999/xlink" x="0px" y="0px"
	 width="192px" height="192px" viewBox="0 0 192 192" enable-background="new 0 0 192 192" xml:space="preserve">
<path fill="none" stroke="#000000" stroke-width="12" stroke-linecap="round" stroke-linejoin="round" stroke-miterlimit="10" d="
	M73.509,32.841c-9.196,3.931-16.011,7.113-33.077,28.904c-33.247,42.446-11.779,85.141-9.717,93.109
	c5.522,2.369,41.044,28.261,81.395,6.503c23.005-12.4,43.826-48.531,47.414-54.934"/>
<path fill="none" stroke="#000000" stroke-width="12" stroke-linecap="round" stroke-linejoin="round" stroke-miterlimit="10" d="
	M161.585,106.423"/>
<path fill="none" stroke="#000000" stroke-width="12" stroke-linecap="round" stroke-linejoin="round" stroke-miterlimit="10" d="
	M158.583,103.709c-3.002-2.714-36.874-33.262-57.574-50.595c-9.15-7.67-16.768-14.026-22.114-18.483
	c-0.946-0.602-2.825-1.594-5.386-1.79c-4.077-0.305-3.242-3.366-4.077-2.764c4.295-3.26,19.4-11.801,43.377-6.242
	c12.778,2.963,21.768,10.14,26.527,14.636l0,0c2.882-4.206,5.884-6.583,7.858-7.88c1.461-0.962,1.854-1.009,15.717-4.504
	c2.239-0.563,6.116-1.548,6.878,0c0.474,0.954,0,3.377,0,3.377s-1.195,3.26-1.966,4.503c-2.167,3.526-7.136,1.032-13.758,3.377
	c-2.866,1.016-7.248,2.572-7.857,5.629c-1.188,5.965,13.645,9.304,17.681,23.65c5.668,20.188-1.933,24.048-2.304,39.799"/>
<path fill="none" stroke="#000000" stroke-width="12" stroke-linecap="round" stroke-linejoin="round" stroke-miterlimit="10" d="
	M166.094,81.535"/>
<line fill="none" stroke="#000000" stroke-width="6" stroke-linecap="round" stroke-linejoin="round" stroke-miterlimit="10" x1="121.819" y1="26.803" x2="121.818" y2="26.803"/>
<line fill="none" stroke="#000000" stroke-width="6" stroke-linecap="round" stroke-linejoin="round" stroke-miterlimit="10" x1="127.672" y1="29.74" x2="127.669" y2="29.744"/>
</svg>
