<?xml version="1.0" encoding="utf-8"?>
<!-- Generator: Adobe Illustrator 16.0.0, SVG Export Plug-In . SVG Version: 6.00 Build 0)  -->
<!DOCTYPE svg PUBLIC "-//W3C//DTD SVG 1.1//EN" "http://www.w3.org/Graphics/SVG/1.1/DTD/svg11.dtd">
<svg version="1.1" xmlns="http://www.w3.org/2000/svg" xmlns:xlink="http://www.w3.org/1999/xlink" x="0px" y="0px" width="192px"
	 height="192px" viewBox="0 0 192 192" enable-background="new 0 0 192 192" xml:space="preserve">
<g id="图层_1">
	<path fill="none" d="M116.729,109.901L89.617,82.524c-0.166-0.195-0.396-0.27-0.589-0.4c4.584-6.253,7.374-13.958,7.374-22.361
		c0.005-20.686-16.581-37.459-37.044-37.464c-20.464-0.005-37.058,16.76-37.063,37.445c-0.005,20.686,16.58,37.459,37.045,37.465
		c0.003,0,0.006,0,0.009,0c8.279,0.008,16.319-2.806,22.822-7.985c0.129,0.149,0.193,0.326,0.322,0.475l27.12,27.413
		c1.771,1.795,4.645,1.799,6.419,0.008c0.003-0.002,0.005-0.004,0.008-0.008l0.681-0.706
		C118.484,114.606,118.488,111.705,116.729,109.901L116.729,109.901z"/>
	<path fill="none" stroke="#000000" stroke-width="8" stroke-linecap="round" stroke-linejoin="round" stroke-miterlimit="10" d="
		M112.823,120.789c-1.83,0.01-3.587-0.728-4.87-2.047L81.854,92.36c-6.587,4.689-14.452,7.197-22.508,7.174
		C37.628,99.504,20.03,81.716,20,59.763C20.025,37.81,37.628,20.021,59.346,20c21.717,0.025,39.32,17.811,39.355,39.763
		c-0.005,7.828-2.301,15.479-6.601,21.989l26.236,26.493c2.67,2.726,2.67,7.119,0,9.818l-0.606,0.651
		C116.43,120.034,114.665,120.779,112.823,120.789z"/>
	<path fill="none" stroke="#000000" stroke-width="8" stroke-linecap="round" stroke-linejoin="round" stroke-miterlimit="10" d="
		M45.04,172c-1.73,0-6.343,0-19.866-50.791c-0.276-1.052,0.2-2.158,1.15-2.67l15.024-7.984c0.523-0.28,1.134-0.345,1.703-0.177
		l11.065,3.192c1.222,0.354,1.928,1.643,1.577,2.877c-0.135,0.477-0.417,0.895-0.804,1.198l-6.85,5.351l7.733,21.905
		c5.837-2.932,22.454-9.11,61.256-10.868l15.854-16.277c0.175-6.27,1.538-40.804,11.01-61.983
		c-3.24-1.582-11.903-4.755-20.151-7.519l-5.606,8.636c-0.487,0.709-1.312,1.104-2.164,1.033c-0.858-0.086-1.595-0.655-1.904-1.47
		l-4.475-11.725c-0.239-0.624-0.203-1.322,0.101-1.917l8.682-16.778c0.532-1.02,1.719-1.497,2.799-1.125l49.279,17.317
		c1.201,0.421,1.837,1.747,1.42,2.961c-0.064,0.187-0.15,0.364-0.259,0.529c-0.194,0.289-18.929,29.35-15.431,79.777
		c0.396,5.759-17.362,21.393-27.977,30.196c-0.49,0.424-1.14,0.606-1.776,0.503c-0.047,0-4.253-0.587-11.342-0.587
		c-13.146,0-39.567,2.094-68.777,16.108C45.908,171.886,45.477,171.984,45.04,172z"/>
</g>
<g id="图层_2">
</g>
</svg>
