<?xml version="1.0" encoding="utf-8"?>
<!-- Generator: Adobe Illustrator 16.0.0, SVG Export Plug-In . SVG Version: 6.00 Build 0)  -->
<!DOCTYPE svg PUBLIC "-//W3C//DTD SVG 1.1//EN" "http://www.w3.org/Graphics/SVG/1.1/DTD/svg11.dtd">
<svg version="1.1" id="图层_1" xmlns="http://www.w3.org/2000/svg" xmlns:xlink="http://www.w3.org/1999/xlink" x="0px" y="0px"
	 width="192px" height="192px" viewBox="0 0 192 192" enable-background="new 0 0 192 192" xml:space="preserve">
<path fill="none" stroke="#000000" stroke-width="8" stroke-linecap="round" stroke-linejoin="round" stroke-miterlimit="10" d="
	M156.127,78.517c-1.801-1.8-0.6-3.7,0.699-5.3c5.6-6.8,1.4-9.9-4.6-12.3c-17.199-6.7-33.6-5.1-48.1,6.5
	c-6.701,5.4-10.8,5.8-17.8,0.2c-15-12.1-32.1-13.6-49.8-5.9c-5.1,2.2-8,5.4-3.6,10.5c3.6,4.1,1.5,6.7-1,10.2
	c-11.1,15.5-10.8,34.701,0.5,49.201c11,14.1,29.4,19.399,46.7,11.8c8.3-3.7,10.1,3.5,14.9,5.7h4c4-7,8.699-7.9,16.799-4.9
	c20.301,7.5,42-3.9,49.701-24.4c1.1-2.899,0.398-6.699,3.699-8.8v-8C164.627,94.617,162.826,85.417,156.127,78.517z"/>
<path fill="none" stroke="#000000" stroke-width="8" stroke-linecap="round" stroke-linejoin="round" stroke-miterlimit="10" d="
	M134.926,133.578c-12.299,4.8-24.799,2.1-33.898-8.9c-4.701-5.6-6.5-7.1-11.801-0.199c-10.899,14-30.5,15-43.1,3.5
	c-13.5-12.301-14.3-31.5-1.8-44.301c12.8-13.2,31.8-13.4,44.1,0.3c5.2,5.8,7.601,8,13.3,0.1c7.199-10,22.1-12.5,33.5-7.9
	c12.5,5.1,19.1,15.4,19,29.7C153.926,118.078,146.326,129.078,134.926,133.578L134.926,133.578z"/>
<path fill="none" stroke="#000000" stroke-width="8" stroke-linecap="round" stroke-linejoin="round" stroke-miterlimit="10" d="
	M111.989,39.357c-6.9,1.5-11.1,5.7-12.199,13.3c5.5-0.7,10.1-1,14.6-1.9c3.6-0.7,6.301-2.9,5.4-7
	C118.89,39.757,115.69,38.557,111.989,39.357L111.989,39.357z"/>
<path fill="none" stroke="#000000" stroke-width="8" stroke-linecap="round" stroke-linejoin="round" stroke-miterlimit="10" d="
	M79.729,44.1c-2.4-0.3-4.6,0.2-5.3,3.2c0.3,4.6,4,4.5,7.2,4.9c2,0.3,5.3,1.6,5-2.2C86.329,46.3,83.229,44.6,79.729,44.1z"/>
<path fill="none" stroke="#000000" stroke-width="8" stroke-linecap="round" stroke-linejoin="round" stroke-miterlimit="10" d="
	M70.227,99.917c-3.7,0.2-6.4,2.6-6.3,6.5c0.2,4.2,2.9,6.8,7.2,6.399c3.9-0.399,5.5-3.199,5.8-6.699
	C76.327,102.017,74.026,99.717,70.227,99.917z"/>
<path fill="none" stroke="#000000" stroke-width="8" stroke-linecap="round" stroke-linejoin="round" stroke-miterlimit="10" d="
	M120.325,100.017c-3.589-0.2-6.381,1.8-6.579,5.8c-0.3,4.4,1.994,7,6.281,7.101c3.787,0,5.88-2.4,6.18-5.2
	C126.307,102.517,123.913,100.217,120.325,100.017z"/>
</svg>
